<svg width="32" height="23" viewBox="0 0 32 23" fill="none" xmlns="http://www.w3.org/2000/svg">
<path d="M8.38865 22.7394H7.92099C7.87335 22.7314 7.826 22.7214 7.77835 22.7151C6.26723 22.5177 5.2223 21.7258 4.64211 20.352C4.55033 20.1344 4.4983 19.9007 4.42465 19.6642C4.37204 19.6642 4.31387 19.6642 4.256 19.6642C3.43847 19.663 2.62065 19.6716 1.80312 19.657C1.21884 19.6467 0.75001 19.3879 0.384066 18.9457C0.187356 18.708 0.0847634 18.4283 0 18.1401C0 12.5601 0 6.9798 0 1.39979C0.0154912 1.36122 0.0344899 1.32351 0.0455968 1.2838C0.175372 0.826446 0.446031 0.467072 0.869555 0.240535C1.07825 0.128838 1.32143 0.0782738 1.54912 0C6.98567 0 12.4222 0 17.8588 0C17.8807 0.00799878 17.902 0.0202826 17.9248 0.0237107C18.8321 0.169403 19.4696 0.899577 19.4696 1.79458C19.4696 2.61789 19.4696 3.44119 19.4696 4.26421V4.43475C19.801 4.28735 20.1281 4.30363 20.4537 4.30392C22.0019 4.30477 23.5502 4.30592 25.0987 4.30335C25.5781 4.30249 26.0209 4.4239 26.4354 4.65501C27.0217 4.98181 27.4812 5.44574 27.8822 5.96509C28.6792 6.99779 29.4646 8.03906 30.2573 9.07519C30.7101 9.66682 31.059 10.3104 31.2753 11.0189C31.3388 11.2266 31.373 11.4431 31.4209 11.6554V18.0258C31.4113 18.0518 31.3975 18.0767 31.3923 18.1035C31.2359 18.8703 30.5966 19.5042 29.8104 19.635C29.5444 19.6793 29.267 19.6624 28.9949 19.6613C28.883 19.661 28.84 19.689 28.8131 19.8024C28.5135 21.0739 27.7477 21.9761 26.5125 22.4674C26.1536 22.6103 25.7523 22.6514 25.3705 22.7391H24.9029C24.8649 22.732 24.8275 22.7228 24.7892 22.7183C23.3947 22.5586 22.3749 21.8655 21.7459 20.6426C21.5907 20.3406 21.5039 20.0047 21.3802 19.6702H11.8768C11.8651 19.713 11.8531 19.7536 11.8432 19.7944C11.51 21.1748 10.6565 22.1015 9.28539 22.5589C8.99865 22.6546 8.68795 22.6808 8.38836 22.7391L8.38865 22.7394ZM18.2154 18.4272V18.2726C18.2154 12.8078 18.2127 7.34288 18.2221 1.87829C18.2227 1.55091 17.8778 1.22381 17.5577 1.22439C12.312 1.23324 7.06663 1.23067 1.82095 1.23067C1.42432 1.23067 1.24281 1.40807 1.24281 1.80001C1.24222 7.11263 1.24222 12.425 1.24281 17.7376C1.24281 18.1964 1.48628 18.4323 1.95423 18.4326C2.73347 18.4332 3.51271 18.4326 4.29224 18.4326C4.34018 18.4326 4.38811 18.4326 4.43342 18.4326C4.77335 16.4932 6.5601 15.3614 8.09548 15.3628C8.8832 15.3637 9.6069 15.5596 10.257 15.9939C11.1391 16.5835 11.6696 17.4028 11.8745 18.4272H18.2156H18.2154ZM30.1644 12.9066C30.0001 12.9066 29.8548 12.9066 29.7098 12.9066C27.9906 12.9066 26.2717 12.9095 24.5524 12.9055C23.4932 12.9032 22.6207 12.0427 22.6207 11.0112C22.6207 9.24517 22.6207 7.47943 22.6207 5.71342V5.53259C22.5511 5.53259 22.4985 5.53259 22.4459 5.53259C21.7009 5.53259 20.9553 5.54744 20.2108 5.52687C19.7993 5.51545 19.4634 5.90853 19.4643 6.26076C19.4731 10.2639 19.4699 14.267 19.4699 18.2698C19.4699 18.3204 19.4699 18.3709 19.4699 18.4235H21.4159C21.4302 18.3609 21.4431 18.3058 21.4557 18.2507C21.9464 16.0693 24.3312 14.7958 26.4582 15.6033C27.7235 16.0838 28.5059 16.9991 28.8134 18.2935C28.84 18.4058 28.88 18.4423 28.994 18.4346C29.1346 18.4249 29.2778 18.4195 29.4173 18.4346C29.8054 18.4772 30.174 18.0847 30.1705 17.6962C30.1559 16.1541 30.1646 14.6118 30.1646 13.0697C30.1646 13.0229 30.1646 12.9757 30.1646 12.9063L30.1644 12.9066ZM23.8752 5.54573V5.68514C23.8752 7.45115 23.8752 9.21746 23.8752 10.9835C23.8752 11.3706 24.1909 11.6754 24.5896 11.6757C26.3626 11.6757 28.1353 11.6757 29.9083 11.6757C29.9609 11.6757 30.0138 11.6757 30.0793 11.6757C30.0732 11.6194 30.0705 11.5777 30.0635 11.5368C29.9612 10.9426 29.7022 10.413 29.3401 9.93306C28.5395 8.87265 27.7357 7.81424 26.9194 6.76497C26.7206 6.50958 26.4821 6.27933 26.2383 6.06279C25.9633 5.81826 25.6529 5.58801 25.2756 5.55516C24.8178 5.51545 24.354 5.54573 23.8749 5.54573H23.8752ZM8.1554 16.5915C6.74804 16.5963 5.64027 17.6873 5.64407 19.0651C5.64758 20.4358 6.77551 21.5116 8.20392 21.507C9.56277 21.5027 10.6723 20.396 10.6711 19.0465C10.67 17.681 9.54874 16.5869 8.1554 16.5918V16.5915ZM25.1332 16.5915C23.7256 16.5926 22.6204 17.679 22.6204 19.0611C22.6204 20.4223 23.7402 21.5076 25.144 21.5067C26.5251 21.5062 27.6451 20.4075 27.6483 19.0502C27.6516 17.6907 26.526 16.59 25.1332 16.5912V16.5915Z" fill="#2E2C30"/>
</svg>
