<svg width="27" height="27" viewBox="0 0 27 27" fill="none" xmlns="http://www.w3.org/2000/svg">
<path d="M24.625 21.0938H12.8125L6.0625 26.1562V21.0938H2.6875C2.23995 21.0938 1.81072 20.916 1.49426 20.5995C1.17779 20.283 1 19.8538 1 19.4062V2.53125C1 2.0837 1.17779 1.65447 1.49426 1.33801C1.81072 1.02154 2.23995 0.84375 2.6875 0.84375H24.625C25.0726 0.84375 25.5018 1.02154 25.8182 1.33801C26.1347 1.65447 26.3125 2.0837 26.3125 2.53125V19.4062C26.3125 19.8538 26.1347 20.283 25.8182 20.5995C25.5018 20.916 25.0726 21.0938 24.625 21.0938Z" stroke="#2E2C30" stroke-width="1.39" stroke-linecap="round" stroke-linejoin="round"/>
<path d="M6.0625 8.4375H21.25" stroke="#2E2C30" stroke-width="1.39" stroke-linecap="round" stroke-linejoin="round"/>
<path d="M6.0625 13.5H17.875" stroke="#2E2C30" stroke-width="1.39" stroke-linecap="round" stroke-linejoin="round"/>
</svg>
