<svg width="24" height="24" viewBox="0 0 24 24" fill="none" xmlns="http://www.w3.org/2000/svg">
<path d="M9.40012 16.7401L16.7401 9.40012C17.5886 9.8054 18.5418 9.93785 19.4687 9.77924C20.3955 9.62064 21.2504 9.17878 21.9159 8.51442C22.5813 7.85007 23.0246 6.99586 23.1847 6.06928C23.3449 5.14271 23.214 4.18927 22.8101 3.34012L21.3801 4.76012C21.0963 5.0439 20.7114 5.20333 20.3101 5.20333C19.9088 5.20333 19.5239 5.0439 19.2401 4.76012C18.9563 4.47634 18.7969 4.09145 18.7969 3.69012C18.7969 3.28879 18.9563 2.9039 19.2401 2.62012L20.6601 1.19012C19.811 0.786234 18.8575 0.655358 17.931 0.81549C17.0044 0.975622 16.1502 1.4189 15.4858 2.08434C14.8215 2.74979 14.3796 3.60473 14.221 4.53157C14.0624 5.45841 14.1948 6.41163 14.6001 7.26012L7.26012 14.6001C6.41163 14.1948 5.45841 14.0624 4.53157 14.221C3.60473 14.3796 2.74979 14.8215 2.08434 15.4858C1.4189 16.1502 0.975622 17.0044 0.81549 17.931C0.655358 18.8575 0.786234 19.811 1.19012 20.6601L2.62012 19.2401C2.9039 18.9563 3.28879 18.7969 3.69012 18.7969C4.09145 18.7969 4.47634 18.9563 4.76012 19.2401C5.0439 19.5239 5.20333 19.9088 5.20333 20.3101C5.20333 20.7114 5.0439 21.0963 4.76012 21.3801L3.34012 22.8101C4.18927 23.214 5.14271 23.3449 6.06928 23.1847C6.99586 23.0246 7.85007 22.5813 8.51442 21.9159C9.17878 21.2504 9.62064 20.3955 9.77924 19.4687C9.93785 18.5418 9.8054 17.5886 9.40012 16.7401Z" stroke="#2E2C30" stroke-width="1.5" stroke-linecap="round" stroke-linejoin="round"/>
<path d="M7.26012 9.40012C6.41163 9.8054 5.45841 9.93785 4.53157 9.77924C3.60473 9.62064 2.74979 9.17878 2.08434 8.51442C1.4189 7.85007 0.975622 6.99586 0.81549 6.06928C0.655358 5.14271 0.786234 4.18927 1.19012 3.34012L2.62012 4.76012C2.9039 5.0439 3.28879 5.20333 3.69012 5.20333C4.09145 5.20333 4.47634 5.0439 4.76012 4.76012C5.0439 4.47634 5.20333 4.09145 5.20333 3.69012C5.20333 3.28879 5.0439 2.9039 4.76012 2.62012L3.34012 1.19012C4.18927 0.786234 5.14271 0.655358 6.06928 0.81549C6.99586 0.975622 7.85007 1.4189 8.51442 2.08434C9.17878 2.74979 9.62064 3.60473 9.77924 4.53157C9.93785 5.45841 9.8054 6.41163 9.40012 7.26012" stroke="#2E2C30" stroke-width="1.5" stroke-linecap="round" stroke-linejoin="round"/>
<path d="M16.7401 14.6006C17.5886 14.1953 18.5418 14.0628 19.4686 14.2214C20.3955 14.38 21.2504 14.8219 21.9159 15.4863C22.5813 16.1506 23.0246 17.0048 23.1847 17.9314C23.3448 18.858 23.214 19.8114 22.8101 20.6606L21.3801 19.2406C21.0963 18.9568 20.7114 18.7974 20.3101 18.7974C19.9088 18.7974 19.5239 18.9568 19.2401 19.2406C18.9563 19.5244 18.7969 19.9092 18.7969 20.3106C18.7969 20.7119 18.9563 21.0968 19.2401 21.3806L20.6601 22.8106C19.8109 23.2145 18.8575 23.3453 17.9309 23.1852C17.0043 23.0251 16.1501 22.5818 15.4858 21.9163C14.8214 21.2509 14.3796 20.396 14.221 19.4691C14.0624 18.5423 14.1948 17.5891 14.6001 16.7406" stroke="#2E2C30" stroke-width="1.5" stroke-linecap="round" stroke-linejoin="round"/>
</svg>
